<?xml version="1.0" standalone="no"?>
<!DOCTYPE svg PUBLIC "-//W3C//DTD SVG 20010904//EN"
 "http://www.w3.org/TR/2001/REC-SVG-20010904/DTD/svg10.dtd">
<svg version="1.0" xmlns="http://www.w3.org/2000/svg"
 width="256.000000pt" height="256.000000pt" viewBox="0 0 256.000000 256.000000"
 preserveAspectRatio="xMidYMid meet">

<g transform="translate(0.000000,256.000000) scale(0.100000,-0.100000)"
fill="#000000" stroke="none">
<path d="M622 2377 l-52 -53 50 -49 50 -50 53 53 52 52 -50 50 -50 50 -53 -53z"/>
<path d="M1045 2238 c-33 -11 -61 -21 -62 -22 -1 -1 12 -44 29 -96 28 -84 32
-108 32 -215 1 -138 -8 -173 -64 -244 -28 -35 -59 -59 -107 -83 -66 -32 -70
-33 -188 -31 -145 2 -211 22 -275 84 -70 68 -85 114 -84 254 1 97 6 136 26
203 l26 84 -65 29 c-36 16 -66 29 -68 29 -8 0 -46 -131 -60 -204 -40 -210 -4
-394 100 -500 166 -172 573 -183 771 -21 100 82 146 199 147 375 0 117 -9 179
-45 308 -24 81 -22 81 -113 50z"/>
<path d="M2007 1462 l-47 -48 53 -52 53 -52 47 48 c26 26 47 52 47 57 0 13
-82 95 -95 95 -6 0 -32 -22 -58 -48z"/>
<path d="M2277 1462 l-47 -48 53 -52 53 -52 52 53 52 53 -48 47 c-26 26 -52
47 -58 47 -5 0 -31 -22 -57 -48z"/>
<path d="M112 1140 c3 -360 3 -366 27 -418 48 -107 152 -166 291 -166 62 0 84
5 127 27 29 15 64 42 79 61 l28 34 48 -43 c27 -24 75 -54 106 -66 70 -26 176
-36 225 -20 54 18 112 64 131 106 26 53 36 146 25 215 -28 173 -130 270 -283
270 -127 0 -201 -60 -283 -228 -25 -52 -57 -107 -71 -123 -58 -70 -166 -93
-234 -51 -65 40 -68 58 -68 354 l0 264 -76 74 -75 75 3 -365z m874 -179 c67
-41 95 -182 46 -234 -32 -34 -82 -42 -142 -22 -52 17 -140 87 -140 111 0 41
63 124 115 152 31 17 87 14 121 -7z"/>
<path d="M2296 1163 l-58 -16 6 -36 c33 -182 33 -275 -1 -333 -27 -47 -65 -57
-230 -57 l-142 -1 -5 33 c-28 194 -63 285 -133 348 -51 46 -100 63 -169 57
-99 -8 -202 -99 -241 -213 -23 -67 -24 -218 -1 -260 44 -82 121 -116 275 -123
69 -3 113 -9 113 -15 0 -29 -46 -100 -94 -145 -62 -59 -127 -94 -227 -121 -39
-11 -74 -23 -77 -26 -4 -4 46 -135 52 -135 1 0 35 9 76 21 105 29 220 92 284
154 59 58 114 158 123 223 l5 40 173 4 173 3 67 35 c111 57 155 143 155 301 0
66 -19 204 -36 262 -6 20 -10 20 -88 0z m-665 -186 c48 -31 81 -103 87 -188
l5 -69 -106 0 c-103 0 -108 1 -138 28 -28 25 -32 35 -32 75 1 67 19 112 59
147 42 36 78 39 125 7z"/>
</g>
</svg>
